# xmcd
#
# Track frame offsets:
#	150
#	15562
#	32995
#	47037
#	63072
#	80122
#	91890
#	110832
#	130177
#	149555
#
# Disc length: 2257 seconds
#
# Revision: 4
# Processed by: cddbd v1.5.2PL0 Copyright (c) Steve Scherf et al.
# Submitted via: EZCDAudioConverter 6.0.2.1
#
DISCID=8908cf0a
DTITLE=Various Artist - A Celebration Of Blues - Great Louisiana Blues
DYEAR=1997
DGENRE=Blues
TTITLE0=Katie Webster - Love Deluxe
TTITLE1=Lynn August - When I Woke Up This Morning
TTITLE2=Earl King and Roomful of Blues - Mardi-Gras In New Orleans
TTITLE3=Professor Longhair - Tipitina
TTITLE4=Chubby Carrier - Who Stole The Hot Sauce?
TTITLE5=Al Rapone - Zydeco To Go
TTITLE6=Kenny Neal - Don't Fix Our Love
TTITLE7=Maria Muldaur - Creole Eyes
TTITLE8=Jo-El Sonnier - Raining In My Heart
TTITLE9=Bobby Charles - The Mard-Gras Song
EXTD=
EXTT0=
EXTT1=
EXTT2=
EXTT3=
EXTT4=
EXTT5=
EXTT6=
EXTT7=
EXTT8=
EXTT9=
PLAYORDER=
